<svg width="27" height="30" viewBox="0 0 27 30" fill="none" xmlns="http://www.w3.org/2000/svg">
<g filter="url(#filter0_d_44:1711)">
<path d="M19.6172 19.6729C19.7393 19.5508 24.7539 15.1611 24.7539 15.1611L23.8994 14.7949C23.4111 14.5557 23.5381 14.2334 23.6553 13.9453C23.7725 13.5742 24.6367 10.6592 24.6367 10.6592C24.6367 10.6592 22.3076 11.1475 21.8193 11.2695C21.4531 11.3867 21.3311 11.1475 21.209 10.9033C21.0869 10.6592 20.4766 9.32129 20.4766 9.32129C20.4766 9.32129 17.9082 12.2461 17.7861 12.3633C17.2979 12.7295 16.8047 12.3633 16.9268 11.875C16.9268 11.3867 18.2744 5.54688 18.2744 5.54688C18.2744 5.54688 16.8047 6.39648 16.3164 6.64062C15.9502 6.88477 15.7012 6.88477 15.457 6.39648C15.208 6.03027 13.3721 2.5 13.3721 2.5C13.3721 2.5 11.541 6.03027 11.2969 6.39648C11.0527 6.88477 10.8086 6.88477 10.4375 6.64062C9.94922 6.39648 8.47949 5.54688 8.47949 5.54688C8.47949 5.54688 9.82715 11.3867 9.82715 11.875C9.94922 12.3633 9.46094 12.7295 8.96777 12.3633C8.8457 12.2412 6.27734 9.32129 6.27734 9.32129C6.27734 9.32129 5.66699 10.6543 5.54492 10.8984C5.42285 11.1426 5.30078 11.3818 4.93457 11.2646C4.44141 11.1426 2.11719 10.6543 2.11719 10.6543C2.11719 10.6543 2.97656 13.5693 3.09863 13.9404C3.21582 14.2334 3.34277 14.5508 2.85449 14.79L2 15.1611C2 15.1611 7.00977 19.5508 7.13672 19.6729C7.38574 19.917 7.625 20.0391 7.38574 20.7715C7.13672 21.5039 6.89258 22.4854 6.89258 22.4854C6.89258 22.4854 11.541 21.5039 12.0342 21.3818C12.459 21.3379 12.9277 21.5039 12.9277 21.9922C12.9277 22.4805 12.6445 27.5 12.6445 27.5H14.1094C14.1094 27.5 13.8262 22.4854 13.8262 21.9922C13.8262 21.499 14.29 21.3379 14.7246 21.3818C15.2129 21.5039 19.8613 22.4854 19.8613 22.4854C19.8613 22.4854 19.6172 21.5039 19.373 20.7715C19.1289 20.0391 19.373 19.917 19.6172 19.6729Z" fill="#002B11"/>
</g>
<defs>
<filter id="filter0_d_44:1711" x="0" y="0.5" width="26.7539" height="29" filterUnits="userSpaceOnUse" color-interpolation-filters="sRGB">
<feFlood flood-opacity="0" result="BackgroundImageFix"/>
<feColorMatrix in="SourceAlpha" type="matrix" values="0 0 0 0 0 0 0 0 0 0 0 0 0 0 0 0 0 0 127 0" result="hardAlpha"/>
<feOffset/>
<feGaussianBlur stdDeviation="1"/>
<feComposite in2="hardAlpha" operator="out"/>
<feColorMatrix type="matrix" values="0 0 0 0 0 0 0 0 0 0 0 0 0 0 0 0 0 0 0.25 0"/>
<feBlend mode="normal" in2="BackgroundImageFix" result="effect1_dropShadow_44:1711"/>
<feBlend mode="normal" in="SourceGraphic" in2="effect1_dropShadow_44:1711" result="shape"/>
</filter>
</defs>
</svg>
