<svg width="25" height="23" viewBox="0 0 25 23" fill="none" xmlns="http://www.w3.org/2000/svg">
<path d="M22.9219 13.8145L24.9737 4.78675C25.1218 4.13493 24.6263 3.51423 23.9579 3.51423H6.91007L6.51224 1.56935C6.41311 1.08458 5.98655 0.73645 5.49171 0.73645H1.04167C0.466363 0.73645 0 1.20281 0 1.77812V2.47256C0 3.04787 0.466363 3.51423 1.04167 3.51423H4.07478L7.12374 18.4203C6.39431 18.8397 5.90278 19.6263 5.90278 20.5281C5.90278 21.8705 6.99097 22.9587 8.33333 22.9587C9.67569 22.9587 10.7639 21.8705 10.7639 20.5281C10.7639 19.8478 10.4841 19.2332 10.0337 18.792H19.1329C18.6826 19.2332 18.4028 19.8478 18.4028 20.5281C18.4028 21.8705 19.491 22.9587 20.8333 22.9587C22.1757 22.9587 23.2639 21.8705 23.2639 20.5281C23.2639 19.5658 22.7045 18.7342 21.8933 18.3404L22.1327 17.2868C22.2809 16.6349 21.7854 16.0142 21.117 16.0142H9.46688L9.18281 14.6253H21.9061C22.3925 14.6253 22.8141 14.2888 22.9219 13.8145Z" fill="#002B11"/>
</svg>
